<svg viewBox="0 0 1200 800" xmlns="http://www.w3.org/2000/svg">
  <!-- Background gradient for fitness landscape -->
  <defs>
    <radialGradient id="fitnessGradient" cx="75%" cy="25%">
      <stop offset="0%" style="stop-color:#1abc9c;stop-opacity:0.9"/>
      <stop offset="20%" style="stop-color:#2ecc71;stop-opacity:0.7"/>
      <stop offset="40%" style="stop-color:#f1c40f;stop-opacity:0.5"/>
      <stop offset="60%" style="stop-color:#e67e22;stop-opacity:0.4"/>
      <stop offset="80%" style="stop-color:#e74c3c;stop-opacity:0.3"/>
      <stop offset="100%" style="stop-color:#c0392b;stop-opacity:0.2"/>
    </radialGradient>
    
    <!-- Arrow marker -->
    <marker id="arrowhead" markerWidth="10" markerHeight="7" 
     refX="10" refY="3.5" orient="auto">
      <polygon points="0 0, 10 3.5, 0 7" fill="#34495e" />
    </marker>
    
    <!-- Larger arrow for main flow -->
    <marker id="bigArrow" markerWidth="15" markerHeight="10" 
     refX="15" refY="5" orient="auto">
      <polygon points="0 0, 15 5, 0 10" fill="#2980b9" />
    </marker>
  </defs>
  
  <!-- Title -->
  <text x="600" y="35" text-anchor="middle" fill="#2c3e50" font-size="28" font-weight="bold">
    How Genetic Algorithms Find Solutions in "Solution Space"
  </text>
  
  <!-- Fitness landscape background -->
  <rect x="100" y="70" width="1000" height="600" fill="url(#fitnessGradient)" stroke="#7f8c8d" stroke-width="2" rx="10"/>
  
  <!-- Fitness landscape labels -->
  <text x="150" y="95" fill="#2c3e50" font-size="14" font-weight="bold">Solution Space</text>
  <text x="150" y="110" fill="#7f8c8d" font-size="12">(All possible strategies)</text>
  
  <!-- Peak label -->
  <g id="peak-label">
    <circle cx="950" cy="150" r="8" fill="#1abc9c" stroke="#16a085" stroke-width="2"/>
    <text x="980" y="140" fill="#2c3e50" font-size="14" font-weight="bold">🏆 Optimal Solution</text>
    <text x="980" y="155" fill="#16a085" font-size="12">(Perfect Breakout Player)</text>
    <text x="980" y="170" fill="#7f8c8d" font-size="11">High fitness score</text>
  </g>
  
  <!-- Valley labels -->
  <text x="120" y="640" fill="#e74c3c" font-size="12" font-weight="bold">Poor Solutions</text>
  <text x="120" y="655" fill="#c0392b" font-size="11">(Random players)</text>
  
  <!-- Generation 1: Random spread -->
  <g id="generation1">
    <text x="200" y="730" fill="#2c3e50" font-size="16" font-weight="bold">Generation 1</text>
    <text x="200" y="745" fill="#7f8c8d" font-size="12">Random starting points</text>
    
    <!-- Random population scattered across space -->
    <circle cx="180" cy="580" r="4" fill="#e74c3c" opacity="0.8"/>
    <circle cx="320" cy="620" r="4" fill="#e74c3c" opacity="0.8"/>
    <circle cx="450" cy="590" r="4" fill="#e74c3c" opacity="0.8"/>
    <circle cx="250" cy="550" r="4" fill="#e67e22" opacity="0.8"/>
    <circle cx="380" cy="600" r="4" fill="#e74c3c" opacity="0.8"/>
    <circle cx="520" cy="570" r="4" fill="#f39c12" opacity="0.8"/>
    <circle cx="650" cy="610" r="4" fill="#e74c3c" opacity="0.8"/>
    <circle cx="780" cy="540" r="4" fill="#f1c40f" opacity="0.8"/>
    <circle cx="890" cy="580" r="4" fill="#e67e22" opacity="0.8"/>
    <circle cx="720" cy="530" r="4" fill="#f39c12" opacity="0.8"/>
    <circle cx="150" cy="600" r="4" fill="#e74c3c" opacity="0.8"/>
    <circle cx="550" cy="620" r="4" fill="#e74c3c" opacity="0.8"/>
    <circle cx="680" cy="590" r="4" fill="#e67e22" opacity="0.8"/>
    <circle cx="820" cy="610" r="4" fill="#e74c3c" opacity="0.8"/>
    <circle cx="420" cy="550" r="4" fill="#f39c12" opacity="0.8"/>
  </g>
  
  <!-- Arrow from Gen 1 to Gen 5 -->
  <path d="M 300 730 Q 400 720 500 730" stroke="#2980b9" stroke-width="3" fill="none" marker-end="url(#bigArrow)"/>
  <text x="400" y="715" text-anchor="middle" fill="#2980b9" font-size="14" font-weight="bold">Selection + Reproduction</text>
  
  <!-- Generation 5: Some clustering -->
  <g id="generation5">
    <text x="500" y="730" fill="#2c3e50" font-size="16" font-weight="bold">Generation 5</text>
    <text x="500" y="745" fill="#7f8c8d" font-size="12">Starting to cluster</text>
    
    <!-- Population starting to cluster in better areas -->
    <circle cx="480" cy="480" r="4" fill="#f39c12" opacity="0.8"/>
    <circle cx="520" cy="470" r="4" fill="#f1c40f" opacity="0.8"/>
    <circle cx="550" cy="490" r="4" fill="#f39c12" opacity="0.8"/>
    <circle cx="680" cy="420" r="4" fill="#2ecc71" opacity="0.8"/>
    <circle cx="720" cy="440" r="4" fill="#f1c40f" opacity="0.8"/>
    <circle cx="750" cy="430" r="4" fill="#2ecc71" opacity="0.8"/>
    <circle cx="620" cy="460" r="4" fill="#f1c40f" opacity="0.8"/>
    <circle cx="580" cy="450" r="4" fill="#f39c12" opacity="0.8"/>
    <circle cx="320" cy="550" r="4" fill="#e67e22" opacity="0.8"/>
    <circle cx="280" cy="570" r="4" fill="#e74c3c" opacity="0.8"/>
    <circle cx="780" cy="380" r="4" fill="#27ae60" opacity="0.8"/>
    <circle cx="820" cy="400" r="4" fill="#2ecc71" opacity="0.8"/>
    <circle cx="650" cy="410" r="4" fill="#2ecc71" opacity="0.8"/>
    <circle cx="510" cy="500" r="4" fill="#f39c12" opacity="0.8"/>
    <circle cx="450" cy="520" r="4" fill="#e67e22" opacity="0.8"/>
  </g>
  
  <!-- Arrow from Gen 5 to Gen 15 -->
  <path d="M 600 730 Q 700 720 800 730" stroke="#2980b9" stroke-width="3" fill="none" marker-end="url(#bigArrow)"/>
  
  <!-- Generation 15: Strong clustering -->
  <g id="generation15">
    <text x="800" y="730" fill="#2c3e50" font-size="16" font-weight="bold">Generation 15</text>
    <text x="800" y="745" fill="#7f8c8d" font-size="12">Converging on solution</text>
    
    <!-- Population clustered near optimal solution -->
    <circle cx="880" cy="280" r="4" fill="#1abc9c" opacity="0.9"/>
    <circle cx="920" cy="290" r="4" fill="#16a085" opacity="0.9"/>
    <circle cx="860" cy="300" r="4" fill="#27ae60" opacity="0.9"/>
    <circle cx="900" cy="270" r="4" fill="#1abc9c" opacity="0.9"/>
    <circle cx="940" cy="310" r="4" fill="#2ecc71" opacity="0.9"/>
    <circle cx="870" cy="320" r="4" fill="#27ae60" opacity="0.9"/>
    <circle cx="910" cy="250" r="4" fill="#1abc9c" opacity="0.9"/>
    <circle cx="850" cy="280" r="4" fill="#16a085" opacity="0.9"/>
    <circle cx="930" cy="280" r="4" fill="#1abc9c" opacity="0.9"/>
    <circle cx="890" cy="300" r="4" fill="#16a085" opacity="0.9"/>
    <circle cx="960" cy="290" r="4" fill="#2ecc71" opacity="0.9"/>
    <circle cx="840" cy="310" r="4" fill="#27ae60" opacity="0.9"/>
    <circle cx="920" cy="260" r="4" fill="#1abc9c" opacity="0.9"/>
    <circle cx="880" cy="330" r="4" fill="#2ecc71" opacity="0.9"/>
    <circle cx="950" cy="270" r="4" fill="#16a085" opacity="0.9"/>
  </g>
  
  <!-- Best individual tracker -->
  <g id="best-tracker">
    <text x="1050" y="730" fill="#2c3e50" font-size="16" font-weight="bold">Best Individual</text>
    <text x="1050" y="745" fill="#7f8c8d" font-size="12">Tracks toward optimum</text>
    
    <!-- Path of best individual -->
    <path d="M 250 570 Q 400 500 520 470 Q 650 400 750 350 Q 820 300 900 260 Q 920 240 940 200 Q 950 170 950 150" 
          stroke="#e74c3c" stroke-width="4" fill="none" opacity="0.8" stroke-dasharray="5,5"/>
    
    <!-- Best individual markers -->
    <circle cx="250" cy="570" r="6" fill="#e74c3c" stroke="#c0392b" stroke-width="2"/>
    <text x="260" y="565" fill="#e74c3c" font-size="10" font-weight="bold">Gen 1</text>
    
    <circle cx="520" cy="470" r="6" fill="#f39c12" stroke="#e67e22" stroke-width="2"/>
    <text x="530" y="465" fill="#f39c12" font-size="10" font-weight="bold">Gen 5</text>
    
    <circle cx="900" cy="260" r="6" fill="#27ae60" stroke="#2ecc71" stroke-width="2"/>
    <text x="910" y="255" fill="#27ae60" font-size="10" font-weight="bold">Gen 15</text>
    
    <circle cx="950" cy="150" r="8" fill="#1abc9c" stroke="#16a085" stroke-width="3"/>
    <text x="960" y="145" fill="#1abc9c" font-size="10" font-weight="bold">Optimal!</text>
  </g>
  
  <!-- Side panel with concepts -->
  <g id="concepts">
    <rect x="50" y="100" width="200" height="400" fill="#ecf0f1" stroke="#bdc3c7" stroke-width="1" rx="5"/>
    <text x="150" y="125" text-anchor="middle" fill="#2c3e50" font-size="14" font-weight="bold">Key Concepts</text>
    
    <text x="70" y="150" fill="#2c3e50" font-size="12" font-weight="bold">🎯 Solution Space:</text>
    <text x="70" y="165" fill="#7f8c8d" font-size="10">All possible strategies</text>
    <text x="70" y="177" fill="#7f8c8d" font-size="10">for playing Breakout</text>
    
    <text x="70" y="200" fill="#2c3e50" font-size="12" font-weight="bold">🏔️ Fitness Landscape:</text>
    <text x="70" y="215" fill="#7f8c8d" font-size="10">Higher = better performance</text>
    <text x="70" y="227" fill="#7f8c8d" font-size="10">Lower = worse performance</text>
    
    <text x="70" y="250" fill="#2c3e50" font-size="12" font-weight="bold">🔴 Population:</text>
    <text x="70" y="265" fill="#7f8c8d" font-size="10">Each dot = one strategy</text>
    <text x="70" y="277" fill="#7f8c8d" font-size="10">(computer player)</text>
    
    <text x="70" y="300" fill="#2c3e50" font-size="12" font-weight="bold">⚡ Evolution:</text>
    <text x="70" y="315" fill="#7f8c8d" font-size="10">Population climbs toward</text>
    <text x="70" y="327" fill="#7f8c8d" font-size="10">better solutions</text>
    
    <text x="70" y="350" fill="#2c3e50" font-size="12" font-weight="bold">🏆 Convergence:</text>
    <text x="70" y="365" fill="#7f8c8d" font-size="10">All players become</text>
    <text x="70" y="377" fill="#7f8c8d" font-size="10">expert-level</text>
    
    <text x="70" y="410" fill="#e74c3c" font-size="11" font-weight="bold">No Programming Required!</text>
    <text x="70" y="425" fill="#7f8c8d" font-size="10">The computer discovers</text>
    <text x="70" y="437" fill="#7f8c8d" font-size="10">good strategies naturally</text>
    <text x="70" y="449" fill="#7f8c8d" font-size="10">through evolution</text>
  </g>
  
  <!-- Fitness scale -->
  <g id="fitness-scale">
    <text x="1150" y="100" text-anchor="middle" fill="#2c3e50" font-size="12" font-weight="bold">Fitness</text>
    <rect x="1140" y="110" width="20" height="200" fill="url(#fitnessGradient)" stroke="#7f8c8d" stroke-width="1"/>
    <text x="1170" y="120" fill="#1abc9c" font-size="10">High</text>
    <text x="1170" y="210" fill="#f39c12" font-size="10">Medium</text>
    <text x="1170" y="300" fill="#e74c3c" font-size="10">Low</text>
  </g>
  
  <!-- Bottom explanation -->
  <g id="bottom-explanation">
    <rect x="100" y="690" width="1000" height="80" fill="#34495e" rx="5"/>
    <text x="600" y="715" text-anchor="middle" fill="white" font-size="16" font-weight="bold">
      The GA "Searches" the Solution Space Intelligently
    </text>
    <text x="600" y="735" text-anchor="middle" fill="#ecf0f1" font-size="13">
      Instead of randomly trying every possibility, evolution guides the search toward promising areas
    </text>
    <text x="600" y="755" text-anchor="middle" fill="#ecf0f1" font-size="13">
      Good solutions "reproduce" and spread, while bad solutions "die out" - just like in nature!
    </text>
  </g>
</svg>